<svg width="93" height="93" viewBox="0 0 93 93" fill="none" xmlns="http://www.w3.org/2000/svg">
<path d="M92.0956 37.393H88.35V37.2H46.5V55.8H72.7795C68.9456 66.6275 58.6435 74.4 46.5 74.4C31.0922 74.4 18.6 61.9078 18.6 46.5C18.6 31.0922 31.0922 18.6 46.5 18.6C53.6122 18.6 60.0827 21.283 65.0093 25.6657L78.1619 12.5132C69.857 4.77323 58.7481 0 46.5 0C20.8204 0 0 20.8204 0 46.5C0 72.1796 20.8204 93 46.5 93C72.1796 93 93 72.1796 93 46.5C93 43.3822 92.6792 40.3388 92.0956 37.393Z" fill="#FFC107"/>
<path d="M5.36133 24.8566L20.6389 36.0608C24.7728 25.8261 34.7842 18.6 46.4999 18.6C53.6121 18.6 60.0825 21.283 65.0092 25.6657L78.1617 12.5132C69.8568 4.77323 58.748 0 46.4999 0C28.6392 0 13.1501 10.0835 5.36133 24.8566Z" fill="#FF3D00"/>
<path d="M46.5001 93C58.5111 93 69.4246 88.4035 77.6761 80.9286L63.2843 68.7502C58.4589 72.42 52.5625 74.4048 46.5001 74.4C34.4055 74.4 24.136 66.688 20.2672 55.9255L5.10352 67.6087C12.7993 82.6677 28.4279 93 46.5001 93Z" fill="#4CAF50"/>
<path d="M92.0956 37.3929H88.35V37.2H46.5V55.8H72.7795C70.9455 60.9531 67.6421 65.4561 63.2772 68.7525L63.2842 68.7479L77.6759 80.9262C76.6576 81.8516 93 69.75 93 46.5C93 43.3821 92.6792 40.3387 92.0956 37.3929Z" fill="#1976D2"/>
</svg>
